# xmcd
#
# Track frame offsets: 
#        150
#        16631
#        33365
#        49506
#        80829
#        108531
#        135563
#        168825
#
# Disc length: 2620 seconds
#
# Revision: 2
# Processed by: cddbd v1.5.1PL0 Copyright (c) Steve Scherf et al.
# Submitted via: ExactAudioCopy v0.90b4
#
DISCID=580a3a08
DTITLE=Culture Beat - Take Me Away
DYEAR=1996
DGENRE=Club
TTITLE0=Take Me Away (Radio Edit)
TTITLE1=Take Me Away (Aboria Euro Radio)
TTITLE2=Take Me Away (Sweetbox Hotpants Radio)
TTITLE3=Take Me Away (Extended Mix)
TTITLE4=Take Me Away (Aboria Euro Mix)
TTITLE5=Take Me Away (Sweetbox Hotpants Mix)
TTITLE6=Take Me Away (M'N's Gazelled Up Mix)
TTITLE7=Take Me Away (Doug Laurent Mix)
EXTD=
EXTT0=
EXTT1=
EXTT2=
EXTT3=
EXTT4=
EXTT5=
EXTT6=
EXTT7=
PLAYORDER=
